<?xml version="1.0" encoding="utf-8"?>
<svg xmlns="http://www.w3.org/2000/svg"
	xmlns:xlink="http://www.w3.org/1999/xlink"
	width="19px" height="28px" viewBox="0 0 19 28">
<g><rect x="0" y="0" width="19" height="28" rx="2" fill="rgb(61,61,61)"/><path fillRule="evenodd" d="M 4.3 2.75C 4.3 2.75 14.7 2.75 14.7 2.75 15.69 2.75 16.49 3.78 16.49 5.05 16.49 5.05 16.49 20.66 16.49 20.66 16.49 21.92 15.69 22.95 14.7 22.95 14.7 22.95 4.3 22.95 4.3 22.95 3.31 22.95 2.51 21.92 2.51 20.66 2.51 20.66 2.51 5.05 2.51 5.05 2.51 3.78 3.31 2.75 4.3 2.75Z" fill="rgb(237,237,237)"/><circle cx="9.50" cy="25.50" r="1.50" fill="rgb(237,237,237)"/></g></svg>