<?xml version="1.0" encoding="utf-8"?>
<svg xmlns="http://www.w3.org/2000/svg"
	xmlns:xlink="http://www.w3.org/1999/xlink"
	width="11px" height="15px" viewBox="0 0 11 15">
<filter filterUnits="objectBoundingBox" x="0.00" y="0.00" width="100.00" height="100.00" id="filter0">
<feFlood flood-color="rgb(67,67,67)" result="coFloodOut1"/>
<feComposite in="coFloodOut1" in2="SourceAlpha" operator="in" result="coOverlay1"/>
<feBlend in="coOverlay1" in2="SourceGraphic" mode="normal" result="colorOverlay1"/>
</filter>
<path fillRule="evenodd" d="M 9.62 15C 9.62 15 1.37 15 1.37 15 0.62 15-0 14.44-0 13.75-0 13.75-0 1.25-0 1.25-0 0.56 0.62-0 1.37-0 1.37-0 9.62-0 9.62-0 10.38-0 11 0.56 11 1.25 11 1.25 11 13.75 11 13.75 11 14.44 10.38 15 9.62 15ZM 5.49 14.06C 5.86 14.06 6.17 13.78 6.17 13.44 6.17 13.09 5.86 12.81 5.49 12.81 5.11 12.81 4.8 13.09 4.8 13.44 4.8 13.78 5.11 14.06 5.49 14.06ZM 6.87 0.62C 6.87 0.62 3.44 0.62 3.44 0.62 3.44 0.62 3.44 1.25 3.44 1.25 3.44 1.25 6.92 1.25 6.92 1.25 6.92 1.25 6.87 0.62 6.87 0.62ZM 9.62 1.87C 9.62 1.87 1.39 1.87 1.39 1.87 1.39 1.87 1.37 11.87 1.37 11.87 1.37 11.87 9.62 11.87 9.62 11.87 9.62 11.87 9.62 1.87 9.62 1.87Z" fill="rgb(209,209,209)" filter="url(#filter0)"/></svg>